<svg xmlns="http://www.w3.org/2000/svg" viewBox="0 0 64 64">
  <defs>
    <linearGradient id="bg" x1="8" y1="5" x2="56" y2="59" gradientUnits="userSpaceOnUse">
      <stop stop-color="#181328"/>
      <stop offset="1" stop-color="#07090d"/>
    </linearGradient>
    <linearGradient id="shield" x1="17" y1="12" x2="49" y2="52" gradientUnits="userSpaceOnUse">
      <stop stop-color="#c09cff"/>
      <stop offset=".52" stop-color="#72d8ff"/>
      <stop offset="1" stop-color="#79efbd"/>
    </linearGradient>
    <filter id="glow" x="-60%" y="-60%" width="220%" height="220%">
      <feGaussianBlur stdDeviation="1.6" result="blur"/>
      <feMerge><feMergeNode in="blur"/><feMergeNode in="SourceGraphic"/></feMerge>
    </filter>
  </defs>
  <rect x="2" y="2" width="60" height="60" rx="16" fill="url(#bg)"/>
  <rect x="2.75" y="2.75" width="58.5" height="58.5" rx="15.25" fill="none" stroke="#ab89ff" stroke-opacity=".28" stroke-width="1.5"/>
  <path d="M32 9.5 50 16v13.2c0 12.1-7.2 21.1-18 26.1-10.8-5-18-14-18-26.1V16l18-6.5Z" fill="#0a0d14" stroke="url(#shield)" stroke-width="3" stroke-linejoin="round"/>
  <path d="M21 27.5v-5h5M43 27.5v-5h-5M21 36.5v5h5M43 36.5v5h-5" fill="none" stroke="#72d8ff" stroke-width="2.5" stroke-linecap="round" filter="url(#glow)"/>
  <circle cx="25" cy="32" r="2." fill="#ab89ff" filter="url(#glow)"/>
  <circle cx="32" cy="30" r="2.35" fill="#72d8ff" filter="url(#glow)"/>
  <circle cx="39" cy="32" r="2.2" fill="#79efbd" filter="url(#glow)"/>
  <path d="M18.5 35h27" stroke="#72d8ff" stroke-width="1.4" stroke-linecap="round" opacity=".9" filter="url(#glow)"/>
</svg>
